<svg version="1.1" viewBox="0.0 0.0 1024.0 1024.0" fill="none" stroke="none" stroke-linecap="square" stroke-miterlimit="10" xmlns:xlink="http://www.w3.org/1999/xlink" xmlns="http://www.w3.org/2000/svg"><clipPath id="p.0"><path d="m0 0l1024.0 0l0 1024.0l-1024.0 0l0 -1024.0z" clip-rule="nonzero"/></clipPath><g clip-path="url(#p.0)"><path fill="#000000" fill-opacity="0.0" d="m0 0l1024.0 0l0 1024.0l-1024.0 0z" fill-rule="evenodd"/><path fill="#f5f5dc" d="m925.3722 608.7224l0 0c-1.8446045 227.36493 -186.96033 410.55896 -414.3321 410.031c-227.37177 -0.5279541 -411.6347 -184.57971 -412.42343 -411.95074l85.61169 -0.29699707c0.62538147 180.28253 146.72746 326.21716 327.01056 326.63574c180.28308 0.41864014 327.06134 -144.83594 328.52393 -325.11353z" fill-rule="evenodd"/><path fill="#f5f5dc" d="m798.5177 607.7001l0 0c-1.2774048 157.44495 -129.35944 284.3595 -286.80945 284.19507c-157.45001 -0.16442871 -285.26672 -127.34613 -286.21533 -284.7934l77.96059 -0.46966553l0 0c0.6904602 114.605835 93.72827 207.18146 208.33615 207.30109c114.60785 0.11968994 207.8388 -92.26141 208.76855 -206.8656z" fill-rule="evenodd"/><path fill="#f5f5dc" d="m668.4821 606.6368l0 0c-0.6959839 85.78314 -70.32617 155.01471 -156.11194 155.2182c-85.785736 0.20343018 -155.74353 -68.69708 -156.84637 -154.47601l58.731415 -0.7550659c0.6889038 53.58264 44.388733 96.62201 97.97568 96.494934c53.586914 -0.1270752 97.08209 -43.37329 97.516846 -96.95856z" fill-rule="evenodd"/><path fill="#f5f5dc" d="m554.97253 605.3801l0 0c0 15.404358 -8.24762 29.629639 -21.61615 37.28308c-13.368591 7.6534424 -29.811646 7.5634766 -43.095642 -0.23577881c-13.284027 -7.7993164 -21.375458 -22.114014 -21.20691 -37.517456l42.95807 0.4701538z" fill-rule="evenodd"/><path fill="#f5f5dc" d="m184.01991 5.245348l41.322845 0l0 603.49603l-41.322845 0z" fill-rule="evenodd"/><path fill="#f5f5dc" d="m798.65436 5.245348l41.322815 0l0 603.49603l-41.322815 0z" fill-rule="evenodd"/><path fill="#f5f5dc" d="m302.26273 79.85073l53.259827 0l0 528.9134l-53.259827 0z" fill-rule="evenodd"/><path fill="#f5f5dc" d="m668.49286 79.85073l53.259827 0l0 528.9134l-53.259827 0z" fill-rule="evenodd"/><path fill="#f5f5dc" d="m414.28452 184.90419l54.771637 0l0 422.04724l-54.771637 0z" fill-rule="evenodd"/><path fill="#f5f5dc" d="m554.95905 184.90419l54.771667 0l0 422.04724l-54.771667 0z" fill-rule="evenodd"/></g></svg>